<svg xmlns="http://www.w3.org/2000/svg"  viewBox="0 0 24 24" width="24px" height="24px"><path d="M12.005,10.739v2.82c0,0.276,0.224,0.5,0.5,0.5h4.94c-0.604,1.971-2.094,3.464-4.249,3.866 c-3.429,0.638-6.864-1.856-7.199-5.328C5.65,9.001,8.474,5.968,12.005,5.968c1.34,0,2.577,0.44,3.579,1.182 c0.2,0.148,0.473,0.14,0.649-0.037l1.948-1.948c0.381-0.381,0.372-0.727,0.145-0.912c-2.229-1.821-5.265-2.702-8.475-2.027 C5.862,3.066,2.873,6.16,2.162,10.174C1.042,16.498,5.881,22,12.005,22c8.11,0,10.113-7.326,9.497-11.337 c-0.037-0.24-0.251-0.41-0.494-0.411l-8.502-0.013C12.229,10.239,12.005,10.463,12.005,10.739z"/></svg>